<svg id="svg" version="1.1" xmlns="http://www.w3.org/2000/svg" xmlns:xlink="http://www.w3.org/1999/xlink" width="400" height="400" viewBox="0, 0, 400,400"><g id="svgg"><path id="path0" d="M193.200 122.234 C 187.830 122.773,181.701 123.948,179.800 124.803 C 179.360 125.000,178.370 125.340,177.600 125.557 C 175.399 126.177,173.343 126.985,172.746 127.464 C 172.446 127.705,171.790 128.028,171.288 128.182 C 170.505 128.422,169.137 129.243,165.438 131.695 C 162.211 133.835,157.083 138.735,155.350 141.336 C 154.741 142.251,154.051 143.180,153.818 143.400 C 152.417 144.720,149.515 152.132,148.634 156.640 C 147.590 161.977,148.088 171.339,149.611 175.000 C 151.457 179.436,152.222 181.095,152.671 181.631 C 152.962 181.979,153.200 182.446,153.200 182.670 C 153.200 182.893,153.560 183.402,154.000 183.800 C 154.440 184.198,154.800 184.676,154.800 184.862 C 154.800 185.048,155.115 185.532,155.500 185.938 C 155.885 186.343,157.047 187.577,158.082 188.678 C 159.116 189.779,160.527 191.112,161.216 191.640 C 161.905 192.168,162.679 192.784,162.935 193.008 C 166.440 196.082,181.037 204.000,183.199 204.000 C 183.462 204.000,184.154 204.245,184.738 204.545 C 186.079 205.232,188.042 205.918,190.600 206.591 C 191.700 206.881,193.140 207.302,193.800 207.527 C 194.973 207.926,196.337 208.284,200.800 209.362 C 204.656 210.294,208.187 211.280,208.600 211.541 C 208.820 211.681,209.720 212.003,210.600 212.259 C 214.664 213.437,222.444 216.975,224.464 218.563 C 225.049 219.024,225.878 219.670,226.304 220.000 C 229.639 222.578,232.358 225.864,233.583 228.800 C 233.813 229.350,234.178 230.108,234.394 230.485 C 235.911 233.122,235.888 243.607,234.358 247.270 C 229.945 257.835,217.883 264.000,201.626 264.000 C 196.851 264.000,188.435 262.875,186.846 262.024 C 186.409 261.791,185.753 261.600,185.387 261.600 C 183.701 261.600,175.592 257.429,173.200 255.332 C 168.849 251.517,165.790 247.131,164.833 243.336 C 164.620 242.491,164.260 241.080,164.032 240.200 C 163.805 239.320,163.615 237.586,163.610 236.347 C 163.597 233.498,164.012 233.611,153.600 233.611 C 143.104 233.611,143.601 233.465,143.595 236.547 C 143.586 240.647,145.640 248.947,147.457 252.158 C 147.968 253.061,148.572 254.222,148.798 254.737 C 149.597 256.560,153.389 261.034,156.311 263.600 C 157.939 265.030,159.615 266.515,160.035 266.900 C 160.456 267.285,160.903 267.600,161.028 267.600 C 161.153 267.600,162.089 268.173,163.108 268.874 C 164.126 269.575,165.779 270.582,166.780 271.113 C 167.781 271.644,169.050 272.321,169.600 272.617 C 171.679 273.738,176.049 275.497,179.000 276.402 C 185.390 278.360,195.582 279.997,201.413 280.002 C 205.098 280.005,216.379 278.788,218.475 278.161 C 219.506 277.852,220.601 277.600,220.908 277.600 C 222.290 277.600,230.643 274.723,232.189 273.715 C 232.623 273.432,233.298 273.200,233.689 273.200 C 234.080 273.200,234.400 273.049,234.400 272.864 C 234.400 272.680,234.862 272.318,235.427 272.060 C 244.561 267.899,253.570 256.676,255.224 247.400 C 256.674 239.262,256.672 238.253,255.179 229.600 C 254.722 226.953,252.965 222.303,251.476 219.800 C 245.528 209.804,236.971 203.171,221.800 196.799 C 221.360 196.615,219.740 196.064,218.200 195.575 C 216.660 195.087,214.809 194.443,214.086 194.144 C 213.364 193.845,212.426 193.600,212.001 193.600 C 211.577 193.600,210.278 193.257,209.115 192.837 C 207.952 192.418,206.303 191.955,205.451 191.810 C 204.599 191.664,203.609 191.399,203.251 191.220 C 202.893 191.041,201.790 190.685,200.800 190.429 C 196.569 189.337,194.576 188.713,194.220 188.368 C 194.011 188.166,193.539 188.000,193.171 188.000 C 192.287 188.000,189.507 186.846,184.000 184.191 C 177.413 181.017,170.400 174.692,170.400 171.925 C 170.400 171.526,170.240 171.200,170.043 171.200 C 169.511 171.200,168.400 165.828,168.400 163.251 C 168.400 155.473,171.711 148.875,178.268 143.585 C 185.829 137.484,207.930 135.807,217.332 140.620 C 217.955 140.939,218.684 141.200,218.952 141.200 C 219.838 141.200,226.142 145.623,227.685 147.327 C 229.626 149.470,232.400 153.474,232.400 154.133 C 232.400 154.412,232.578 154.818,232.796 155.036 C 233.656 155.896,235.200 162.179,235.200 164.820 L 235.200 167.500 236.450 167.750 C 238.048 168.070,253.107 168.068,254.300 167.748 C 256.641 167.120,254.391 155.298,250.568 148.138 C 244.913 137.546,234.134 128.685,222.400 124.982 C 214.019 122.337,202.743 121.276,193.200 122.234 " stroke="none" fill="#f8f9fa" fill-rule="evenodd"></path><path id="path1" d="M0.000 200.000 L 0.000 400.000 200.000 400.000 L 400.000 400.000 400.000 200.000 L 400.000 0.000 200.000 0.000 L 0.000 0.000 0.000 200.000 M210.336 121.137 C 210.852 121.429,212.652 121.763,214.336 121.880 C 216.021 121.997,217.799 122.342,218.286 122.646 C 218.773 122.951,219.766 123.200,220.492 123.200 C 221.218 123.200,222.484 123.560,223.304 124.000 C 224.125 124.440,225.136 124.800,225.550 124.800 C 225.963 124.800,226.526 125.070,226.800 125.400 C 227.074 125.730,227.681 126.012,228.149 126.027 C 228.617 126.041,229.900 126.580,231.000 127.223 C 232.100 127.867,233.405 128.571,233.900 128.787 C 234.395 129.003,234.800 129.353,234.800 129.563 C 234.800 129.774,235.205 130.069,235.700 130.220 C 237.825 130.865,248.800 141.543,248.800 142.965 C 248.800 143.120,249.332 143.911,249.982 144.723 C 250.632 145.536,251.439 146.863,251.776 147.673 C 252.112 148.483,252.571 149.258,252.794 149.396 C 253.017 149.534,253.200 150.117,253.200 150.692 C 253.200 151.267,253.485 152.052,253.834 152.437 C 254.183 152.823,254.569 153.917,254.692 154.869 C 254.816 155.821,255.161 156.955,255.458 157.389 C 256.176 158.435,256.228 168.012,255.520 168.720 C 255.173 169.067,252.320 169.200,245.200 169.200 C 233.827 169.200,234.400 169.401,234.400 165.409 C 234.400 163.657,234.191 162.277,233.850 161.789 C 233.548 161.355,233.165 160.190,233.000 159.200 C 232.835 158.210,232.452 157.045,232.150 156.611 C 231.847 156.177,231.600 155.524,231.600 155.160 C 231.600 154.796,231.330 154.274,231.000 154.000 C 230.670 153.726,230.400 153.239,230.400 152.917 C 230.400 151.624,222.271 143.600,220.961 143.600 C 220.653 143.600,220.040 143.240,219.600 142.800 C 219.160 142.360,218.372 142.000,217.849 142.000 C 217.326 142.000,216.674 141.730,216.400 141.400 C 216.126 141.070,215.284 140.800,214.529 140.800 C 213.774 140.800,212.340 140.428,211.343 139.974 C 208.849 138.838,191.421 138.941,189.400 140.105 C 188.740 140.484,187.637 140.796,186.949 140.798 C 186.261 140.799,185.474 141.070,185.200 141.400 C 184.926 141.730,184.224 142.000,183.640 142.000 C 183.056 142.000,182.270 142.360,181.893 142.800 C 181.516 143.240,180.955 143.600,180.645 143.600 C 179.260 143.600,172.400 150.623,172.400 152.041 C 172.400 152.412,172.130 152.818,171.800 152.945 C 171.470 153.071,171.200 153.661,171.200 154.256 C 171.200 154.851,170.895 155.674,170.523 156.085 C 169.501 157.214,169.489 168.372,170.508 169.498 C 170.888 169.919,171.200 170.566,171.200 170.936 C 171.200 172.311,176.478 178.800,177.597 178.800 C 177.797 178.800,178.104 179.029,178.280 179.308 C 178.456 179.588,179.095 180.034,179.700 180.300 C 180.305 180.565,180.800 180.967,180.800 181.191 C 180.800 181.416,181.149 181.600,181.576 181.600 C 182.003 181.600,182.469 181.788,182.610 182.017 C 182.752 182.246,183.573 182.716,184.434 183.060 C 185.295 183.405,186.000 183.847,186.000 184.043 C 186.000 184.240,186.416 184.400,186.924 184.400 C 187.431 184.400,188.196 184.664,188.624 184.987 C 189.051 185.310,189.673 185.580,190.006 185.587 C 190.339 185.594,191.284 185.960,192.104 186.400 C 192.925 186.840,194.026 187.200,194.550 187.200 C 195.073 187.200,195.707 187.447,195.958 187.749 C 196.209 188.052,197.266 188.417,198.307 188.563 C 199.348 188.708,200.549 189.090,200.976 189.413 C 201.404 189.736,202.506 190.000,203.427 190.000 C 204.359 190.000,205.304 190.244,205.558 190.549 C 205.808 190.851,207.074 191.218,208.371 191.365 C 209.667 191.512,210.946 191.894,211.213 192.216 C 211.504 192.566,212.403 192.800,213.462 192.800 C 214.660 192.800,215.299 192.992,215.455 193.400 C 215.604 193.788,216.224 194.000,217.214 194.000 C 218.055 194.000,219.008 194.265,219.332 194.589 C 219.656 194.913,220.701 195.353,221.653 195.567 C 222.606 195.782,223.449 196.146,223.526 196.378 C 223.603 196.610,224.077 196.800,224.579 196.800 C 225.081 196.800,225.950 197.160,226.509 197.600 C 227.069 198.040,227.908 198.400,228.376 198.400 C 228.843 198.400,229.329 198.670,229.455 199.000 C 229.582 199.330,230.002 199.600,230.389 199.600 C 230.776 199.600,231.550 199.960,232.109 200.400 C 232.669 200.840,233.307 201.200,233.528 201.200 C 234.014 201.200,237.946 203.702,238.834 204.576 C 239.182 204.919,239.668 205.200,239.914 205.200 C 240.159 205.200,240.504 205.426,240.680 205.702 C 240.856 205.979,241.689 206.719,242.532 207.347 C 244.776 209.020,247.884 212.305,249.454 214.663 C 250.210 215.797,251.092 216.944,251.414 217.212 C 251.736 217.479,252.000 218.017,252.000 218.406 C 252.000 218.796,252.270 219.218,252.600 219.345 C 252.930 219.471,253.200 220.011,253.200 220.545 C 253.200 221.078,253.453 221.612,253.762 221.730 C 254.072 221.849,254.455 222.543,254.613 223.273 C 254.772 224.003,255.149 224.955,255.451 225.389 C 255.753 225.823,256.000 227.016,256.000 228.040 C 256.000 229.207,256.224 230.088,256.600 230.400 C 257.474 231.125,257.485 245.470,256.613 246.624 C 256.290 247.051,256.020 248.233,256.013 249.251 C 256.005 250.395,255.771 251.292,255.400 251.600 C 255.070 251.874,254.800 252.364,254.800 252.689 C 254.800 253.515,252.703 258.000,252.317 258.000 C 252.143 258.000,252.000 258.199,252.000 258.442 C 252.000 258.685,251.595 259.380,251.100 259.987 C 250.605 260.593,249.930 261.516,249.600 262.038 C 248.662 263.522,244.359 267.674,242.386 268.999 C 241.403 269.658,240.489 270.350,240.354 270.535 C 240.080 270.911,238.686 271.747,237.270 272.384 C 236.758 272.615,236.070 273.072,235.741 273.402 C 235.412 273.731,234.818 274.000,234.420 274.000 C 234.023 274.000,233.483 274.258,233.221 274.574 C 232.959 274.890,232.182 275.272,231.495 275.423 C 230.808 275.574,229.997 275.946,229.694 276.249 C 229.391 276.552,228.603 276.800,227.943 276.800 C 227.283 276.800,226.484 277.059,226.167 277.376 C 225.850 277.693,224.738 278.063,223.695 278.199 C 222.653 278.334,221.322 278.705,220.738 279.023 C 220.116 279.361,218.544 279.605,216.938 279.613 C 215.167 279.621,213.926 279.833,213.424 280.213 C 212.275 281.081,191.725 281.081,190.576 280.213 C 190.067 279.827,188.819 279.621,186.949 279.613 C 185.045 279.604,183.948 279.419,183.646 279.055 C 183.397 278.756,182.292 278.404,181.190 278.273 C 180.088 278.143,178.790 277.758,178.304 277.418 C 177.819 277.078,177.011 276.800,176.510 276.800 C 176.008 276.800,174.925 276.440,174.104 276.000 C 173.284 275.560,172.294 275.200,171.906 275.200 C 171.518 275.200,171.200 275.023,171.200 274.808 C 171.200 274.592,170.705 274.298,170.100 274.154 C 169.495 274.010,168.730 273.659,168.399 273.374 C 168.069 273.089,167.349 272.660,166.799 272.422 C 166.250 272.183,165.260 271.628,164.600 271.187 C 163.940 270.746,162.905 270.169,162.300 269.905 C 161.695 269.641,161.200 269.302,161.200 269.151 C 161.200 269.001,160.165 268.197,158.900 267.365 C 156.949 266.082,151.960 261.392,150.588 259.552 C 149.210 257.703,146.800 253.728,146.800 253.303 C 146.800 253.027,146.627 252.800,146.415 252.800 C 146.204 252.800,145.826 252.040,145.576 251.112 C 145.326 250.183,144.869 249.063,144.561 248.623 C 144.252 248.182,144.000 247.129,144.000 246.282 C 144.000 245.436,143.730 244.473,143.400 244.143 C 142.494 243.237,142.523 233.392,143.433 233.043 C 144.702 232.556,163.412 232.772,163.920 233.280 C 164.184 233.544,164.406 234.759,164.413 235.980 C 164.420 237.294,164.665 238.517,165.013 238.976 C 165.336 239.404,165.601 240.484,165.603 241.376 C 165.604 242.323,165.937 243.500,166.400 244.200 C 166.837 244.860,167.196 245.609,167.197 245.865 C 167.204 247.104,172.509 253.997,173.457 253.999 C 173.709 254.000,174.018 254.270,174.145 254.600 C 174.271 254.930,174.638 255.200,174.959 255.200 C 175.280 255.200,175.786 255.425,176.082 255.700 C 177.229 256.763,179.193 258.000,179.735 258.000 C 180.047 258.000,180.514 258.256,180.774 258.569 C 181.034 258.882,181.945 259.256,182.800 259.400 C 183.655 259.544,184.566 259.918,184.826 260.231 C 185.086 260.544,185.956 260.800,186.760 260.800 C 187.564 260.800,188.667 261.115,189.211 261.500 C 190.097 262.127,191.386 262.200,201.600 262.200 C 211.814 262.200,213.103 262.127,213.989 261.500 C 214.533 261.115,215.479 260.800,216.090 260.800 C 216.702 260.800,217.875 260.440,218.696 260.000 C 219.516 259.560,220.470 259.200,220.814 259.200 C 221.158 259.200,221.641 258.999,221.886 258.754 C 222.356 258.284,223.656 257.492,225.000 256.856 C 226.453 256.168,231.468 250.982,231.744 249.881 C 231.893 249.286,232.192 248.800,232.408 248.800 C 232.623 248.800,232.800 248.478,232.800 248.085 C 232.800 247.691,233.160 246.663,233.600 245.800 C 234.622 243.796,234.813 233.241,233.842 232.435 C 233.535 232.180,233.170 231.366,233.031 230.626 C 232.892 229.886,232.514 229.060,232.189 228.791 C 231.865 228.522,231.600 228.039,231.600 227.717 C 231.600 226.679,224.741 219.600,223.736 219.600 C 223.441 219.600,223.200 219.423,223.200 219.208 C 223.200 218.992,222.757 218.704,222.216 218.568 C 221.675 218.433,221.023 218.069,220.767 217.761 C 220.511 217.452,219.992 217.200,219.613 217.200 C 219.234 217.200,218.598 216.840,218.200 216.400 C 217.802 215.960,216.986 215.600,216.387 215.600 C 215.788 215.600,215.074 215.330,214.800 215.000 C 214.526 214.670,213.873 214.400,213.350 214.400 C 212.826 214.400,211.725 214.040,210.904 213.600 C 210.084 213.160,208.936 212.800,208.355 212.800 C 207.774 212.800,207.095 212.555,206.846 212.256 C 206.598 211.956,205.406 211.609,204.198 211.485 C 202.989 211.360,201.718 210.975,201.372 210.629 C 200.977 210.234,200.038 210.000,198.848 210.000 C 197.801 210.000,196.605 209.737,196.176 209.413 C 195.749 209.090,194.765 208.820,193.989 208.813 C 193.213 208.806,192.201 208.536,191.740 208.213 C 191.279 207.890,190.114 207.503,189.151 207.354 C 188.188 207.204,187.045 206.838,186.611 206.541 C 186.177 206.243,185.344 206.000,184.760 206.000 C 184.176 206.000,183.474 205.730,183.200 205.400 C 182.926 205.070,182.402 204.800,182.036 204.800 C 181.669 204.800,180.663 204.440,179.800 204.000 C 178.937 203.560,177.903 203.200,177.503 203.200 C 177.102 203.200,176.671 202.930,176.545 202.600 C 176.418 202.270,175.998 202.000,175.611 202.000 C 175.224 202.000,174.450 201.640,173.891 201.200 C 173.331 200.760,172.600 200.400,172.265 200.400 C 171.931 200.400,171.411 200.154,171.110 199.853 C 170.809 199.552,170.135 199.170,169.612 199.004 C 168.665 198.703,168.202 198.395,166.811 197.139 C 166.408 196.776,165.742 196.372,165.331 196.242 C 164.919 196.111,163.991 195.463,163.267 194.802 C 162.543 194.141,161.791 193.600,161.595 193.600 C 161.400 193.600,161.096 193.350,160.920 193.044 C 160.744 192.739,159.655 191.745,158.500 190.835 C 157.345 189.926,156.400 189.000,156.400 188.777 C 156.400 188.555,155.895 187.879,155.277 187.275 C 154.659 186.671,154.035 185.867,153.889 185.489 C 153.744 185.110,153.452 184.800,153.240 184.800 C 153.027 184.800,152.740 184.441,152.601 184.002 C 152.462 183.564,152.134 182.970,151.874 182.683 C 150.934 181.648,149.600 178.821,149.600 177.864 C 149.600 177.326,149.330 176.782,149.000 176.655 C 148.612 176.506,148.400 175.887,148.400 174.902 C 148.400 174.064,148.085 172.933,147.700 172.389 C 146.796 171.112,146.636 156.563,147.514 155.504 C 147.796 155.164,148.136 153.967,148.269 152.845 C 148.402 151.724,148.756 150.603,149.055 150.354 C 149.355 150.105,149.612 149.519,149.627 149.051 C 149.652 148.241,150.325 146.931,152.972 142.543 C 154.733 139.625,164.214 130.400,165.452 130.400 C 165.609 130.400,166.067 130.101,166.471 129.736 C 167.314 128.973,167.816 128.685,172.215 126.440 C 173.983 125.538,175.783 124.799,176.215 124.797 C 176.647 124.796,177.540 124.437,178.200 124.000 C 178.908 123.531,180.077 123.204,181.051 123.203 C 181.959 123.201,182.905 122.955,183.153 122.656 C 183.439 122.312,184.855 122.034,187.008 121.900 C 188.881 121.783,190.635 121.503,190.908 121.277 C 192.081 120.303,208.652 120.184,210.336 121.137 " stroke="none" fill="#5c6cc4" fill-rule="evenodd"></path><path id="path2" d="M192.802 120.679 C 192.032 120.782,191.180 121.050,190.908 121.277 C 190.635 121.503,188.881 121.783,187.008 121.900 C 184.855 122.034,183.439 122.312,183.153 122.656 C 182.905 122.955,181.959 123.201,181.051 123.203 C 180.077 123.204,178.908 123.531,178.200 124.000 C 177.540 124.437,176.647 124.796,176.215 124.797 C 175.783 124.799,173.983 125.538,172.215 126.440 C 167.816 128.685,167.314 128.973,166.471 129.736 C 166.067 130.101,165.609 130.400,165.452 130.400 C 164.214 130.400,154.733 139.625,152.972 142.543 C 150.325 146.931,149.652 148.241,149.627 149.051 C 149.612 149.519,149.355 150.105,149.055 150.354 C 148.756 150.603,148.402 151.724,148.269 152.845 C 148.136 153.967,147.796 155.164,147.514 155.504 C 146.636 156.563,146.796 171.112,147.700 172.389 C 148.085 172.933,148.400 174.064,148.400 174.902 C 148.400 175.887,148.612 176.506,149.000 176.655 C 149.330 176.782,149.600 177.326,149.600 177.864 C 149.600 178.821,150.934 181.648,151.874 182.683 C 152.134 182.970,152.462 183.564,152.601 184.002 C 152.740 184.441,153.027 184.800,153.240 184.800 C 153.452 184.800,153.744 185.110,153.889 185.489 C 154.035 185.867,154.659 186.671,155.277 187.275 C 155.895 187.879,156.400 188.555,156.400 188.777 C 156.400 189.000,157.345 189.926,158.500 190.835 C 159.655 191.745,160.744 192.739,160.920 193.044 C 161.096 193.350,161.400 193.600,161.595 193.600 C 161.791 193.600,162.543 194.141,163.267 194.802 C 163.991 195.463,164.919 196.111,165.331 196.242 C 165.742 196.372,166.408 196.776,166.811 197.139 C 168.202 198.395,168.665 198.703,169.612 199.004 C 170.135 199.170,170.809 199.552,171.110 199.853 C 171.411 200.154,171.931 200.400,172.265 200.400 C 172.600 200.400,173.331 200.760,173.891 201.200 C 174.450 201.640,175.224 202.000,175.611 202.000 C 175.998 202.000,176.418 202.270,176.545 202.600 C 176.671 202.930,177.102 203.200,177.503 203.200 C 177.903 203.200,178.937 203.560,179.800 204.000 C 180.663 204.440,181.669 204.800,182.036 204.800 C 182.402 204.800,182.926 205.070,183.200 205.400 C 183.474 205.730,184.176 206.000,184.760 206.000 C 185.344 206.000,186.177 206.243,186.611 206.541 C 187.045 206.838,188.188 207.204,189.151 207.354 C 190.114 207.503,191.279 207.890,191.740 208.213 C 192.201 208.536,193.213 208.806,193.989 208.813 C 194.765 208.820,195.749 209.090,196.176 209.413 C 196.604 209.736,197.594 209.982,198.376 209.959 L 199.800 209.918 198.600 209.629 C 197.940 209.469,197.007 209.128,196.526 208.869 C 196.046 208.611,195.146 208.399,194.526 208.398 C 193.907 208.396,192.884 208.126,192.254 207.798 C 191.624 207.469,190.882 207.200,190.605 207.200 C 189.725 207.200,183.849 205.180,180.200 203.623 C 171.361 199.850,156.879 190.466,156.789 188.452 C 156.782 188.314,156.052 187.390,155.165 186.400 C 153.398 184.428,150.008 178.703,149.987 177.657 C 149.980 177.296,149.710 176.651,149.387 176.224 C 149.064 175.796,148.794 174.986,148.787 174.424 C 148.780 173.861,148.426 172.410,148.000 171.200 C 147.113 168.678,146.895 160.220,147.644 157.400 C 147.878 156.520,148.313 154.810,148.610 153.600 C 149.701 149.166,150.299 147.862,153.504 142.935 C 158.106 135.858,171.935 125.200,176.515 125.200 C 176.788 125.200,177.684 124.840,178.504 124.400 C 179.325 123.960,180.583 123.594,181.299 123.586 C 182.014 123.578,183.050 123.314,183.600 123.000 C 184.150 122.686,185.410 122.416,186.400 122.400 C 187.390 122.385,189.370 122.115,190.800 121.800 C 194.387 121.011,207.321 121.016,210.600 121.808 C 211.920 122.127,213.743 122.390,214.651 122.394 C 215.559 122.397,216.949 122.670,217.738 123.000 C 218.528 123.330,219.582 123.600,220.079 123.600 C 222.101 123.600,232.247 128.150,235.200 130.381 C 235.970 130.963,237.140 131.775,237.800 132.187 C 239.871 133.479,246.531 140.476,248.472 143.400 C 251.251 147.586,252.800 150.352,252.800 151.129 C 252.800 151.510,253.064 152.199,253.387 152.660 C 253.710 153.121,254.095 154.286,254.242 155.249 C 254.389 156.212,254.710 157.252,254.955 157.561 C 255.229 157.905,255.400 160.061,255.400 163.161 L 255.400 168.200 245.200 168.200 L 235.000 168.200 234.781 165.000 C 234.660 163.240,234.369 161.440,234.133 161.000 C 233.898 160.560,233.576 159.486,233.418 158.613 C 233.147 157.113,230.721 151.942,229.817 150.936 C 229.588 150.680,228.770 149.712,228.000 148.783 C 225.763 146.085,218.835 141.102,219.310 142.531 C 219.395 142.789,219.978 143.180,220.605 143.400 C 222.856 144.190,230.400 151.519,230.400 152.917 C 230.400 153.239,230.670 153.726,231.000 154.000 C 231.330 154.274,231.600 154.796,231.600 155.160 C 231.600 155.524,231.847 156.177,232.150 156.611 C 232.452 157.045,232.835 158.210,233.000 159.200 C 233.165 160.190,233.548 161.355,233.850 161.789 C 234.191 162.277,234.400 163.657,234.400 165.409 C 234.400 169.401,233.827 169.200,245.200 169.200 C 252.320 169.200,255.173 169.067,255.520 168.720 C 256.228 168.012,256.176 158.435,255.458 157.389 C 255.161 156.955,254.816 155.821,254.692 154.869 C 254.569 153.917,254.183 152.823,253.834 152.437 C 253.485 152.052,253.200 151.267,253.200 150.692 C 253.200 150.117,253.017 149.534,252.794 149.396 C 252.571 149.258,252.112 148.483,251.776 147.673 C 251.439 146.863,250.632 145.536,249.982 144.723 C 249.332 143.911,248.800 143.120,248.800 142.965 C 248.800 141.543,237.825 130.865,235.700 130.220 C 235.205 130.069,234.800 129.774,234.800 129.563 C 234.800 129.353,234.395 129.003,233.900 128.787 C 233.405 128.571,232.100 127.867,231.000 127.223 C 229.900 126.580,228.617 126.041,228.149 126.027 C 227.681 126.012,227.074 125.730,226.800 125.400 C 226.526 125.070,225.963 124.800,225.550 124.800 C 225.136 124.800,224.125 124.440,223.304 124.000 C 222.484 123.560,221.218 123.200,220.492 123.200 C 219.766 123.200,218.773 122.951,218.286 122.646 C 217.799 122.342,216.021 121.997,214.336 121.880 C 212.652 121.763,210.852 121.429,210.336 121.137 C 209.396 120.605,195.986 120.255,192.802 120.679 M188.800 139.674 C 187.370 140.114,185.690 140.727,185.068 141.037 C 184.445 141.347,183.617 141.600,183.229 141.600 C 182.840 141.600,182.107 141.960,181.600 142.400 C 181.093 142.840,180.434 143.200,180.136 143.200 C 179.226 143.200,172.656 150.084,171.737 152.000 C 169.467 156.735,169.398 157.070,169.432 163.187 L 169.465 169.000 170.960 171.800 C 173.415 176.399,178.622 180.911,185.000 183.965 C 186.100 184.491,187.478 185.165,188.062 185.461 C 188.646 185.758,189.346 186.000,189.618 186.000 C 189.890 186.000,190.852 186.335,191.756 186.744 C 193.954 187.740,196.063 188.456,200.800 189.813 C 201.773 190.092,201.779 190.083,201.000 189.463 C 200.560 189.113,199.348 188.708,198.307 188.563 C 197.266 188.417,196.209 188.052,195.958 187.749 C 195.707 187.447,195.073 187.200,194.550 187.200 C 194.026 187.200,192.925 186.840,192.104 186.400 C 191.284 185.960,190.339 185.594,190.006 185.587 C 189.673 185.580,189.051 185.310,188.624 184.987 C 188.196 184.664,187.431 184.400,186.924 184.400 C 186.416 184.400,186.000 184.240,186.000 184.043 C 186.000 183.847,185.295 183.405,184.434 183.060 C 183.573 182.716,182.752 182.246,182.610 182.017 C 182.469 181.788,182.003 181.600,181.576 181.600 C 181.149 181.600,180.800 181.416,180.800 181.191 C 180.800 180.967,180.305 180.565,179.700 180.300 C 179.095 180.034,178.456 179.588,178.280 179.308 C 178.104 179.029,177.797 178.800,177.597 178.800 C 176.478 178.800,171.200 172.311,171.200 170.936 C 171.200 170.566,170.888 169.919,170.508 169.498 C 169.489 168.372,169.501 157.214,170.523 156.085 C 170.895 155.674,171.200 154.851,171.200 154.256 C 171.200 153.661,171.470 153.071,171.800 152.945 C 172.130 152.818,172.400 152.412,172.400 152.041 C 172.400 150.623,179.260 143.600,180.645 143.600 C 180.955 143.600,181.516 143.240,181.893 142.800 C 182.270 142.360,183.056 142.000,183.640 142.000 C 184.224 142.000,184.926 141.730,185.200 141.400 C 185.474 141.070,186.261 140.799,186.949 140.798 C 187.637 140.796,188.740 140.484,189.400 140.105 C 191.421 138.941,208.849 138.838,211.343 139.974 C 212.340 140.428,213.774 140.800,214.529 140.800 C 215.284 140.800,216.126 141.070,216.400 141.400 C 216.674 141.730,217.371 141.979,217.949 141.954 C 218.789 141.917,218.839 141.867,218.200 141.706 C 217.760 141.595,217.045 141.255,216.611 140.952 C 216.177 140.648,215.525 140.400,215.163 140.400 C 214.801 140.400,213.377 140.040,212.000 139.600 C 208.308 138.421,192.711 138.470,188.800 139.674 M203.214 190.369 C 203.991 190.521,204.861 190.791,205.148 190.968 C 205.434 191.145,206.688 191.513,207.934 191.786 C 209.180 192.059,210.560 192.433,211.000 192.616 C 211.706 192.910,211.737 192.872,211.264 192.291 C 210.936 191.888,209.812 191.528,208.371 191.365 C 207.074 191.218,205.808 190.851,205.558 190.549 C 205.292 190.229,204.414 190.019,203.451 190.046 L 201.800 190.092 203.214 190.369 M213.214 193.155 C 213.991 193.315,214.869 193.596,215.165 193.779 C 215.535 194.007,215.646 193.937,215.521 193.556 C 215.406 193.208,214.676 192.975,213.569 192.932 C 211.862 192.866,211.850 192.874,213.214 193.155 M217.400 194.539 C 218.280 194.793,219.393 195.225,219.874 195.500 C 220.354 195.775,221.015 196.000,221.341 196.000 C 221.668 196.000,222.445 196.248,223.068 196.551 C 223.690 196.854,225.100 197.510,226.200 198.010 C 228.437 199.026,228.462 199.038,231.800 200.813 C 239.918 205.131,246.986 211.441,251.425 218.335 C 252.181 219.509,252.800 220.711,252.800 221.006 C 252.800 221.301,253.025 221.781,253.300 222.071 C 254.005 222.817,255.211 226.234,255.604 228.600 C 255.787 229.700,256.143 231.171,256.397 231.870 C 256.894 233.242,256.769 244.602,256.237 246.400 C 255.952 247.362,255.965 247.370,256.570 246.624 C 257.483 245.499,257.509 231.154,256.600 230.400 C 256.224 230.088,256.000 229.207,256.000 228.040 C 256.000 227.016,255.753 225.823,255.451 225.389 C 255.149 224.955,254.772 224.003,254.613 223.273 C 254.455 222.543,254.072 221.849,253.762 221.730 C 253.453 221.612,253.200 221.078,253.200 220.545 C 253.200 220.011,252.930 219.471,252.600 219.345 C 252.270 219.218,252.000 218.796,252.000 218.406 C 252.000 218.017,251.736 217.479,251.414 217.212 C 251.092 216.944,250.210 215.797,249.454 214.663 C 247.884 212.305,244.776 209.020,242.532 207.347 C 241.689 206.719,240.856 205.979,240.680 205.702 C 240.504 205.426,240.159 205.200,239.914 205.200 C 239.668 205.200,239.182 204.919,238.834 204.576 C 237.946 203.702,234.014 201.200,233.528 201.200 C 233.307 201.200,232.669 200.840,232.109 200.400 C 231.550 199.960,230.776 199.600,230.389 199.600 C 230.002 199.600,229.582 199.330,229.455 199.000 C 229.329 198.670,228.843 198.400,228.376 198.400 C 227.908 198.400,227.069 198.040,226.509 197.600 C 225.950 197.160,225.081 196.800,224.579 196.800 C 224.077 196.800,223.603 196.610,223.526 196.378 C 223.449 196.146,222.606 195.782,221.653 195.567 C 220.701 195.353,219.656 194.913,219.332 194.589 C 219.007 194.264,218.082 194.018,217.271 194.039 L 215.800 194.079 217.400 194.539 M201.372 210.629 C 201.718 210.975,202.989 211.360,204.198 211.485 C 205.406 211.609,206.598 211.956,206.846 212.256 C 207.095 212.555,207.774 212.800,208.355 212.800 C 208.936 212.800,210.084 213.160,210.904 213.600 C 211.725 214.040,212.826 214.400,213.350 214.400 C 213.873 214.400,214.526 214.670,214.800 215.000 C 215.074 215.330,215.788 215.600,216.387 215.600 C 216.986 215.600,217.802 215.960,218.200 216.400 C 218.598 216.840,219.234 217.200,219.613 217.200 C 219.992 217.200,220.511 217.452,220.767 217.761 C 221.023 218.069,221.675 218.433,222.216 218.568 C 222.757 218.704,223.200 218.992,223.200 219.208 C 223.200 219.423,223.441 219.600,223.736 219.600 C 224.741 219.600,231.600 226.679,231.600 227.717 C 231.600 228.039,231.865 228.522,232.189 228.791 C 232.514 229.060,232.892 229.886,233.031 230.626 C 233.271 231.903,234.400 233.426,234.400 232.473 C 234.400 232.239,234.220 231.936,234.000 231.800 C 233.780 231.664,233.600 231.246,233.600 230.870 C 233.600 229.001,229.597 223.472,226.418 220.952 C 225.198 219.985,223.983 219.015,223.717 218.797 C 223.451 218.579,223.070 218.400,222.871 218.400 C 222.671 218.400,222.079 218.065,221.554 217.655 C 221.029 217.245,220.158 216.772,219.619 216.602 C 219.079 216.433,218.391 216.048,218.090 215.747 C 217.789 215.446,217.151 215.194,216.671 215.187 C 216.192 215.180,215.451 214.910,215.024 214.587 C 214.596 214.264,213.921 214.000,213.522 214.000 C 213.123 214.000,212.125 213.640,211.304 213.200 C 210.484 212.760,209.449 212.394,209.006 212.386 C 208.563 212.378,207.750 212.114,207.200 211.800 C 206.650 211.486,205.727 211.222,205.149 211.214 C 204.571 211.206,203.451 210.930,202.662 210.600 C 200.841 209.839,200.588 209.845,201.372 210.629 M143.300 233.065 C 142.696 233.308,142.593 243.054,143.184 243.988 C 143.787 244.941,144.018 244.257,143.593 242.776 C 142.915 240.411,143.086 233.729,143.833 233.443 C 144.181 233.309,148.576 233.200,153.600 233.200 C 164.524 233.200,164.000 233.066,164.000 235.856 C 164.000 237.049,164.270 238.672,164.600 239.462 C 164.930 240.251,165.206 241.371,165.214 241.949 C 165.221 242.527,165.575 243.720,166.000 244.600 C 166.425 245.480,166.779 246.322,166.786 246.472 C 166.919 249.131,174.712 256.253,180.400 258.915 C 183.339 260.291,185.728 261.200,186.402 261.200 C 186.787 261.200,187.709 261.448,188.451 261.751 C 192.487 263.398,211.621 263.386,214.787 261.734 C 215.344 261.443,216.209 261.204,216.708 261.202 C 220.794 261.191,230.256 254.149,232.566 249.400 C 234.804 244.798,234.805 244.793,234.716 238.740 L 234.633 233.000 234.416 238.800 C 234.254 243.139,234.024 244.975,233.500 246.087 C 233.115 246.905,232.800 247.850,232.800 248.187 C 232.800 248.524,232.623 248.800,232.408 248.800 C 232.192 248.800,231.893 249.286,231.744 249.881 C 231.468 250.982,226.453 256.168,225.000 256.856 C 223.656 257.492,222.356 258.284,221.886 258.754 C 221.641 258.999,221.158 259.200,220.814 259.200 C 220.470 259.200,219.516 259.560,218.696 260.000 C 217.875 260.440,216.702 260.800,216.090 260.800 C 215.479 260.800,214.533 261.115,213.989 261.500 C 213.103 262.127,211.814 262.200,201.600 262.200 C 191.386 262.200,190.097 262.127,189.211 261.500 C 188.667 261.115,187.564 260.800,186.760 260.800 C 185.956 260.800,185.086 260.544,184.826 260.231 C 184.566 259.918,183.655 259.544,182.800 259.400 C 181.945 259.256,181.034 258.882,180.774 258.569 C 180.514 258.256,180.047 258.000,179.735 258.000 C 179.193 258.000,177.229 256.763,176.082 255.700 C 175.786 255.425,175.280 255.200,174.959 255.200 C 174.638 255.200,174.271 254.930,174.145 254.600 C 174.018 254.270,173.709 254.000,173.457 253.999 C 172.509 253.997,167.204 247.104,167.197 245.865 C 167.196 245.609,166.837 244.860,166.400 244.200 C 165.937 243.500,165.604 242.323,165.603 241.376 C 165.601 240.484,165.336 239.404,165.013 238.976 C 164.665 238.517,164.420 237.294,164.413 235.980 C 164.406 234.759,164.184 233.544,163.920 233.280 C 163.440 232.800,144.448 232.602,143.300 233.065 M144.046 246.211 C 144.021 247.097,144.252 248.182,144.561 248.623 C 144.869 249.063,145.326 250.183,145.576 251.112 C 145.826 252.040,146.204 252.800,146.415 252.800 C 146.627 252.800,146.800 253.027,146.800 253.303 C 146.800 253.728,149.210 257.703,150.588 259.552 C 151.960 261.392,156.949 266.082,158.900 267.365 C 160.165 268.197,161.200 269.001,161.200 269.151 C 161.200 269.302,161.695 269.641,162.300 269.905 C 162.905 270.169,163.940 270.746,164.600 271.187 C 165.260 271.628,166.250 272.183,166.799 272.422 C 167.349 272.660,168.069 273.089,168.399 273.374 C 168.730 273.659,169.495 274.010,170.100 274.154 C 170.705 274.298,171.200 274.592,171.200 274.808 C 171.200 275.023,171.518 275.200,171.906 275.200 C 172.294 275.200,173.284 275.560,174.104 276.000 C 174.925 276.440,176.008 276.800,176.510 276.800 C 177.011 276.800,177.819 277.078,178.304 277.418 C 178.790 277.758,180.088 278.143,181.190 278.273 C 182.292 278.404,183.397 278.756,183.646 279.055 C 183.958 279.432,184.978 279.584,186.949 279.547 L 189.800 279.495 187.143 279.185 C 185.682 279.014,184.152 278.699,183.743 278.484 C 183.334 278.269,182.220 277.964,181.267 277.806 C 180.314 277.648,179.054 277.268,178.467 276.962 C 177.880 276.656,177.100 276.404,176.732 276.402 C 176.365 276.401,175.555 276.144,174.932 275.831 C 174.310 275.518,172.180 274.500,170.200 273.568 C 168.220 272.636,165.826 271.362,164.880 270.737 C 163.934 270.111,163.072 269.600,162.964 269.600 C 162.749 269.600,160.487 268.039,159.777 267.400 C 159.532 267.180,158.807 266.641,158.166 266.202 C 154.724 263.845,148.652 256.497,146.761 252.400 C 145.336 249.311,144.658 247.514,144.382 246.092 L 144.092 244.600 144.046 246.211 M255.670 248.485 C 255.533 250.614,252.098 258.225,250.706 259.485 C 250.318 259.836,250.000 260.278,250.000 260.465 C 250.000 261.328,245.330 266.123,242.000 268.680 C 238.149 271.637,230.195 275.914,227.400 276.531 C 226.900 276.641,227.076 276.725,227.871 276.754 C 228.571 276.779,229.391 276.552,229.694 276.249 C 229.997 275.946,230.808 275.574,231.495 275.423 C 232.182 275.272,232.959 274.890,233.221 274.574 C 233.483 274.258,234.023 274.000,234.420 274.000 C 234.818 274.000,235.412 273.731,235.741 273.402 C 236.070 273.072,236.758 272.615,237.270 272.384 C 238.686 271.747,240.080 270.911,240.354 270.535 C 240.489 270.350,241.403 269.658,242.386 268.999 C 244.359 267.674,248.662 263.522,249.600 262.038 C 249.930 261.516,250.605 260.593,251.100 259.987 C 251.595 259.380,252.000 258.685,252.000 258.442 C 252.000 258.199,252.143 258.000,252.317 258.000 C 252.681 258.000,254.800 253.537,254.800 252.772 C 254.800 252.492,255.081 251.952,255.425 251.572 C 255.854 251.099,256.001 250.335,255.895 249.141 C 255.810 248.183,255.708 247.888,255.670 248.485 M225.423 277.163 C 225.300 277.362,224.254 277.652,223.100 277.807 C 221.945 277.963,220.780 278.267,220.511 278.485 C 220.242 278.702,218.712 279.018,217.111 279.186 L 214.200 279.491 217.024 279.546 C 218.958 279.583,220.092 279.415,220.624 279.013 C 221.051 278.690,221.850 278.419,222.400 278.410 C 223.891 278.388,226.400 277.617,226.400 277.181 C 226.400 276.697,225.719 276.684,225.423 277.163 M190.576 280.181 C 191.746 281.113,212.271 281.104,213.424 280.171 C 214.153 279.581,214.115 279.562,212.800 279.870 C 210.999 280.292,193.042 280.301,191.200 279.881 C 189.891 279.583,189.850 279.602,190.576 280.181 " stroke="none" fill="#919cd5" fill-rule="evenodd"></path><path id="path3" d="M192.400 121.704 C 188.936 122.347,190.753 122.511,196.019 122.031 C 203.749 121.325,214.691 122.550,222.400 124.982 C 231.981 128.005,240.887 134.379,247.018 142.600 C 249.103 145.395,251.816 150.108,252.430 152.000 C 253.366 154.884,253.966 156.163,253.982 155.314 C 253.992 154.826,253.710 153.746,253.355 152.914 C 247.368 138.854,236.439 128.930,222.000 124.439 C 216.709 122.794,215.069 122.400,213.454 122.386 C 212.544 122.378,210.630 122.115,209.200 121.800 C 206.168 121.133,195.792 121.074,192.400 121.704 M185.539 122.595 C 185.432 122.702,184.007 123.136,182.372 123.561 C 177.203 124.903,168.243 128.680,167.200 129.957 C 167.090 130.092,166.005 130.852,164.788 131.647 C 160.966 134.142,152.046 143.600,153.513 143.600 C 153.707 143.600,154.420 142.745,155.098 141.700 C 156.907 138.910,162.027 133.956,165.438 131.695 C 169.137 129.243,170.505 128.422,171.288 128.182 C 171.790 128.028,172.446 127.705,172.746 127.464 C 173.343 126.985,175.399 126.177,177.600 125.557 C 178.370 125.340,179.360 125.000,179.800 124.803 C 180.856 124.328,187.022 122.874,188.800 122.680 C 189.755 122.576,189.491 122.508,187.967 122.464 C 186.738 122.429,185.646 122.488,185.539 122.595 M197.600 137.716 C 197.490 137.831,195.502 138.115,193.182 138.347 C 189.348 138.731,184.809 139.943,187.051 139.984 C 187.519 139.993,188.599 139.697,189.451 139.327 C 190.760 138.758,192.548 138.649,201.000 138.627 C 210.741 138.601,210.938 138.391,201.800 137.777 C 199.600 137.629,197.710 137.602,197.600 137.716 M211.636 139.160 C 211.985 139.384,213.106 139.755,214.126 139.983 C 221.321 141.596,228.387 147.323,232.031 154.494 C 232.784 155.976,233.462 157.005,233.538 156.781 C 233.613 156.558,233.388 155.936,233.038 155.401 C 232.687 154.866,232.400 154.247,232.400 154.027 C 232.400 153.457,229.483 149.312,227.685 147.327 C 226.010 145.477,219.807 141.200,218.800 141.200 C 218.448 141.200,217.971 141.011,217.739 140.779 C 217.338 140.378,214.121 139.348,212.000 138.943 C 211.207 138.791,211.132 138.836,211.636 139.160 M181.800 141.526 C 175.523 144.832,169.047 152.733,169.246 156.843 C 169.285 157.647,169.321 157.672,169.467 157.000 C 170.508 152.218,176.492 144.616,180.831 142.563 C 181.804 142.102,183.410 141.340,184.400 140.868 C 185.443 140.372,185.863 140.020,185.400 140.031 C 184.960 140.042,183.340 140.715,181.800 141.526 M151.760 146.111 C 148.026 152.636,146.273 164.812,148.176 171.000 C 148.515 172.100,148.793 173.333,148.796 173.740 C 148.800 174.473,148.998 174.998,150.830 179.144 C 154.481 187.404,163.003 195.118,174.800 200.841 C 180.566 203.638,181.240 203.935,182.504 204.231 C 183.111 204.372,183.706 204.649,183.827 204.844 C 183.948 205.040,184.352 205.194,184.724 205.187 C 185.596 205.171,184.176 204.000,183.284 204.000 C 181.043 204.000,166.528 196.159,162.935 193.008 C 162.679 192.784,161.905 192.168,161.216 191.640 C 160.527 191.112,159.116 189.779,158.082 188.678 C 157.047 187.577,155.885 186.343,155.500 185.938 C 155.115 185.532,154.800 185.048,154.800 184.862 C 154.800 184.676,154.440 184.198,154.000 183.800 C 153.560 183.402,153.200 182.893,153.200 182.670 C 153.200 182.446,152.962 181.979,152.671 181.631 C 152.222 181.095,151.457 179.436,149.611 175.000 C 146.698 167.998,147.784 155.233,152.020 146.697 C 153.515 143.683,153.356 143.323,151.760 146.111 M254.033 156.800 C 254.036 158.408,255.131 161.835,255.166 160.346 C 255.185 159.546,254.937 158.286,254.616 157.546 C 254.294 156.806,254.032 156.470,254.033 156.800 M233.641 158.251 C 233.618 158.719,233.870 159.749,234.200 160.538 C 234.539 161.350,234.800 163.190,234.800 164.773 C 234.800 168.513,234.466 168.400,245.525 168.400 C 256.197 168.400,255.706 168.590,255.497 164.536 L 255.357 161.800 255.278 164.653 C 255.207 167.242,255.117 167.529,254.300 167.748 C 253.107 168.068,238.048 168.070,236.450 167.750 L 235.200 167.500 235.176 164.650 C 235.153 162.062,233.741 156.174,233.641 158.251 M168.657 159.500 C 168.322 161.523,168.405 165.967,168.800 167.200 C 168.999 167.822,169.135 166.275,169.160 163.100 C 169.201 157.811,169.080 156.941,168.657 159.500 M169.394 169.800 C 169.540 170.460,169.826 171.060,170.030 171.133 C 170.233 171.207,170.400 171.578,170.400 171.958 C 170.400 174.693,177.451 181.035,184.000 184.191 C 189.507 186.846,192.287 188.000,193.171 188.000 C 193.539 188.000,194.011 188.166,194.220 188.368 C 194.576 188.713,196.569 189.337,200.800 190.429 C 201.790 190.685,202.907 191.050,203.283 191.240 C 203.658 191.430,204.648 191.655,205.483 191.742 C 206.317 191.828,206.640 191.814,206.200 191.711 C 205.760 191.608,205.220 191.377,205.000 191.197 C 204.780 191.018,203.880 190.741,203.000 190.582 C 202.120 190.423,200.770 190.073,200.000 189.806 C 199.230 189.538,197.250 188.901,195.600 188.390 C 193.950 187.880,191.868 187.133,190.974 186.731 C 190.079 186.329,189.228 186.000,189.082 186.000 C 188.337 186.000,182.203 182.833,179.400 181.002 C 175.403 178.390,172.694 175.467,170.687 171.600 C 169.806 169.903,169.244 169.121,169.394 169.800 M208.600 192.614 C 209.260 192.917,210.430 193.273,211.200 193.407 C 211.970 193.541,213.050 193.839,213.600 194.069 C 214.150 194.298,215.410 194.712,216.400 194.987 C 217.390 195.262,218.545 195.633,218.966 195.812 C 219.500 196.038,219.646 195.998,219.449 195.679 C 219.293 195.427,218.409 195.033,217.483 194.802 C 216.557 194.571,215.519 194.226,215.176 194.035 C 214.833 193.844,213.531 193.476,212.283 193.217 C 211.035 192.958,209.910 192.578,209.783 192.373 C 209.657 192.168,209.068 192.015,208.476 192.032 L 207.400 192.065 208.600 192.614 M220.400 196.261 C 222.848 197.067,229.200 200.066,233.000 202.208 C 243.282 208.006,251.742 217.408,253.995 225.541 C 254.515 227.415,255.185 228.518,255.194 227.514 C 255.219 224.723,249.703 215.353,245.587 211.193 C 239.706 205.249,224.126 195.853,220.449 196.032 C 219.911 196.058,219.902 196.097,220.400 196.261 M187.200 206.000 C 188.190 206.415,189.360 206.766,189.800 206.780 C 190.240 206.794,191.116 207.074,191.746 207.402 C 192.376 207.731,193.186 207.994,193.546 207.986 C 194.642 207.962,192.378 206.879,190.600 206.577 C 189.720 206.428,188.514 206.057,187.920 205.753 C 187.326 205.449,186.516 205.210,186.120 205.222 C 185.724 205.235,186.210 205.585,187.200 206.000 M195.400 208.419 C 196.060 208.605,197.410 208.962,198.400 209.214 C 201.406 209.978,205.730 211.205,207.000 211.654 C 207.660 211.888,208.830 212.230,209.600 212.415 C 211.747 212.931,216.226 214.672,218.528 215.884 C 219.148 216.211,219.761 216.373,219.889 216.244 C 220.244 215.889,214.247 213.316,210.600 212.259 C 209.720 212.003,208.820 211.681,208.600 211.541 C 208.155 211.260,204.173 210.162,200.800 209.391 C 199.590 209.114,198.093 208.688,197.474 208.444 C 196.855 208.200,195.865 208.018,195.274 208.041 L 194.200 208.082 195.400 208.419 M223.226 218.362 C 238.477 228.239,239.513 247.648,225.316 257.508 C 224.610 257.999,223.904 258.400,223.748 258.400 C 223.591 258.400,223.179 258.633,222.831 258.919 C 222.190 259.446,219.536 260.498,215.656 261.765 C 209.570 263.750,192.604 263.782,187.899 261.816 C 187.089 261.477,186.075 261.200,185.645 261.200 C 185.216 261.200,184.355 260.946,183.732 260.635 C 183.110 260.325,181.520 259.572,180.200 258.962 C 174.813 256.472,170.493 252.861,167.898 248.680 C 167.243 247.624,166.617 246.849,166.508 246.959 C 166.058 247.409,168.817 251.186,171.400 253.657 C 174.731 256.845,176.587 257.981,183.460 261.039 C 184.154 261.348,185.021 261.600,185.387 261.600 C 185.753 261.600,186.409 261.791,186.846 262.024 C 188.435 262.875,196.851 264.000,201.626 264.000 C 217.883 264.000,229.945 257.835,234.358 247.270 C 235.888 243.607,235.911 233.122,234.394 230.485 C 234.178 230.108,233.813 229.350,233.583 228.800 C 232.673 226.619,230.183 223.267,228.256 221.628 C 227.627 221.093,226.907 220.460,226.656 220.222 C 225.566 219.188,221.195 216.443,220.600 216.418 C 220.380 216.409,221.562 217.284,223.226 218.362 M255.372 230.000 C 255.464 230.990,255.770 233.284,256.051 235.098 C 256.469 237.791,256.466 239.074,256.038 242.098 C 255.174 248.209,255.175 249.184,256.045 245.600 C 257.005 241.641,256.895 234.256,255.818 230.400 L 255.204 228.200 255.372 230.000 M143.330 234.239 C 142.932 235.275,143.519 242.064,144.156 243.800 C 144.933 245.916,144.963 244.441,144.200 241.600 C 143.337 238.384,143.392 234.113,144.300 233.876 C 144.956 233.704,144.955 233.690,144.287 233.646 C 143.896 233.621,143.465 233.888,143.330 234.239 M162.900 233.852 C 163.459 234.017,163.602 234.517,163.610 236.329 C 163.615 237.578,163.805 239.320,164.032 240.200 C 164.260 241.080,164.621 242.498,164.836 243.352 C 165.309 245.226,165.980 246.553,166.297 246.237 C 166.424 246.109,166.249 245.419,165.907 244.702 C 164.985 242.768,164.285 239.751,164.028 236.604 C 163.831 234.188,163.691 233.797,163.000 233.727 C 162.377 233.664,162.355 233.692,162.900 233.852 M144.816 246.824 C 144.807 247.386,145.064 248.196,145.387 248.624 C 146.147 249.627,146.161 248.863,145.416 247.146 C 144.869 245.886,144.830 245.865,144.816 246.824 M254.485 250.173 C 254.218 250.759,254.000 251.467,254.000 251.748 C 254.000 256.290,242.545 268.817,235.427 272.060 C 234.862 272.318,234.400 272.680,234.400 272.864 C 234.400 273.049,234.080 273.200,233.689 273.200 C 233.298 273.200,232.623 273.432,232.189 273.715 C 231.239 274.335,227.945 275.625,224.400 276.766 C 222.612 277.341,222.237 277.555,223.200 277.451 C 226.340 277.113,233.975 273.796,238.748 270.698 C 244.039 267.263,249.303 262.084,251.446 258.207 C 252.357 256.558,253.918 253.348,254.593 251.735 C 255.361 249.900,255.262 248.468,254.485 250.173 M146.007 249.976 C 145.964 253.658,155.573 264.828,162.200 268.799 C 163.080 269.326,163.892 269.889,164.005 270.049 C 164.326 270.504,172.353 274.511,174.800 275.437 C 179.251 277.122,179.828 277.303,181.200 277.452 C 182.060 277.546,181.442 277.232,179.600 276.640 C 177.950 276.109,175.880 275.377,175.000 275.013 C 171.812 273.692,170.582 273.147,169.600 272.617 C 169.050 272.321,167.781 271.644,166.780 271.113 C 165.779 270.582,164.126 269.575,163.108 268.874 C 162.089 268.173,161.153 267.600,161.028 267.600 C 160.903 267.600,160.456 267.285,160.035 266.900 C 159.615 266.515,157.939 265.030,156.311 263.600 C 153.404 261.047,149.616 256.584,148.788 254.737 C 147.759 252.441,146.013 249.452,146.007 249.976 M183.800 278.214 C 184.460 278.517,185.540 278.760,186.200 278.755 C 187.260 278.748,187.189 278.680,185.600 278.179 C 183.333 277.465,182.211 277.487,183.800 278.214 M218.400 278.225 C 217.102 278.716,217.077 278.756,218.054 278.777 C 218.634 278.790,219.714 278.537,220.454 278.216 C 222.268 277.428,220.484 277.437,218.400 278.225 M191.600 279.620 C 196.564 280.577,208.246 280.474,213.800 279.426 L 217.000 278.821 214.400 278.981 C 212.970 279.068,209.491 279.368,206.669 279.648 C 202.493 280.061,200.632 280.058,196.669 279.635 C 188.208 278.732,186.975 278.728,191.600 279.620 " stroke="none" fill="#b6bce4" fill-rule="evenodd"></path><path id="path4" d="M178.976 124.230 C 178.549 124.576,178.439 124.737,178.731 124.587 C 179.024 124.437,179.744 124.169,180.331 123.991 C 181.189 123.733,181.237 123.662,180.576 123.634 C 180.124 123.615,179.404 123.883,178.976 124.230 M232.000 128.550 C 232.000 128.644,232.641 129.099,233.424 129.561 C 234.207 130.023,234.736 130.220,234.599 129.998 C 234.331 129.564,232.000 128.266,232.000 128.550 M242.800 137.000 C 244.217 138.430,245.467 139.600,245.577 139.600 C 245.687 139.600,244.617 138.430,243.200 137.000 C 241.783 135.570,240.533 134.400,240.423 134.400 C 240.313 134.400,241.383 135.570,242.800 137.000 M198.316 138.697 C 199.699 138.775,201.859 138.774,203.116 138.695 C 204.372 138.616,203.240 138.552,200.600 138.553 C 197.960 138.553,196.932 138.618,198.316 138.697 M151.755 145.412 C 151.390 145.969,151.164 146.498,151.253 146.587 C 151.342 146.676,151.718 146.220,152.089 145.574 C 152.914 144.136,152.669 144.017,151.755 145.412 M175.385 146.900 L 173.400 149.000 175.500 147.015 C 176.655 145.923,177.600 144.978,177.600 144.915 C 177.600 144.617,177.229 144.949,175.385 146.900 M251.204 148.200 C 251.205 148.420,251.563 149.140,252.000 149.800 C 253.036 151.364,253.037 150.808,252.001 149.110 C 251.562 148.389,251.204 147.980,251.204 148.200 M169.293 158.800 C 169.293 159.570,169.375 159.885,169.476 159.500 C 169.576 159.115,169.576 158.485,169.476 158.100 C 169.375 157.715,169.293 158.030,169.293 158.800 M147.324 160.600 C 147.326 161.920,147.401 162.412,147.490 161.693 C 147.579 160.974,147.577 159.894,147.486 159.293 C 147.395 158.692,147.322 159.280,147.324 160.600 M255.301 160.600 C 255.305 161.480,255.387 161.793,255.483 161.295 C 255.579 160.798,255.575 160.078,255.475 159.695 C 255.375 159.313,255.296 159.720,255.301 160.600 M147.328 166.800 C 147.328 168.230,147.401 168.815,147.489 168.100 C 147.578 167.385,147.578 166.215,147.489 165.500 C 147.401 164.785,147.328 165.370,147.328 166.800 M169.293 167.600 C 169.293 168.370,169.375 168.685,169.476 168.300 C 169.576 167.915,169.576 167.285,169.476 166.900 C 169.375 166.515,169.293 166.830,169.293 167.600 M174.800 177.347 C 175.570 178.184,176.740 179.243,177.400 179.700 C 178.809 180.674,178.556 180.404,175.600 177.778 C 173.842 176.217,173.682 176.130,174.800 177.347 M211.776 213.378 C 212.204 213.720,212.834 213.986,213.176 213.968 C 213.715 213.941,213.718 213.907,213.200 213.714 C 212.870 213.592,212.240 213.326,211.800 213.124 C 211.013 212.762,211.012 212.766,211.776 213.378 M221.544 217.576 C 222.064 218.029,222.679 218.400,222.911 218.400 C 223.403 218.400,223.379 218.380,221.800 217.455 L 220.600 216.753 221.544 217.576 M148.700 233.499 C 151.395 233.568,155.805 233.568,158.500 233.499 C 161.195 233.430,158.990 233.373,153.600 233.373 C 148.210 233.373,146.005 233.430,148.700 233.499 M234.937 239.000 C 234.939 240.760,235.009 241.430,235.093 240.489 C 235.178 239.549,235.177 238.109,235.091 237.289 C 235.005 236.470,234.936 237.240,234.937 239.000 M170.400 252.125 C 170.400 252.194,170.985 252.779,171.700 253.425 L 173.000 254.600 171.825 253.300 C 170.730 252.088,170.400 251.816,170.400 252.125 M154.400 263.000 C 155.595 264.210,156.663 265.200,156.773 265.200 C 156.883 265.200,155.995 264.210,154.800 263.000 C 153.605 261.790,152.537 260.800,152.427 260.800 C 152.317 260.800,153.205 261.790,154.400 263.000 M191.505 262.683 C 192.002 262.779,192.722 262.775,193.105 262.675 C 193.487 262.575,193.080 262.496,192.200 262.501 C 191.320 262.505,191.007 262.587,191.505 262.683 M210.305 262.683 C 210.802 262.779,211.522 262.775,211.905 262.675 C 212.287 262.575,211.880 262.496,211.000 262.501 C 210.120 262.505,209.807 262.587,210.305 262.683 M195.700 263.076 C 196.085 263.176,196.715 263.176,197.100 263.076 C 197.485 262.975,197.170 262.893,196.400 262.893 C 195.630 262.893,195.315 262.975,195.700 263.076 M206.100 263.076 C 206.485 263.176,207.115 263.176,207.500 263.076 C 207.885 262.975,207.570 262.893,206.800 262.893 C 206.030 262.893,205.715 262.975,206.100 263.076 M200.300 263.489 C 201.015 263.578,202.185 263.578,202.900 263.489 C 203.615 263.401,203.030 263.328,201.600 263.328 C 200.170 263.328,199.585 263.401,200.300 263.489 M242.600 267.850 C 241.881 268.462,241.734 268.705,242.233 268.457 C 242.966 268.093,244.341 266.776,243.949 266.814 C 243.867 266.822,243.260 267.288,242.600 267.850 M210.000 280.000 C 208.633 280.288,208.628 280.295,209.800 280.319 C 210.460 280.333,211.360 280.189,211.800 280.000 C 212.762 279.587,211.964 279.587,210.000 280.000 " stroke="none" fill="#acb4dc" fill-rule="evenodd"></path></g></svg>